<?xml version="1.0" encoding="utf-8"?>
<!-- Generator: Adobe Illustrator 23.0.2, SVG Export Plug-In . SVG Version: 6.00 Build 0)  -->
<svg version="1.1" id="レイヤー_1" xmlns="http://www.w3.org/2000/svg" xmlns:xlink="http://www.w3.org/1999/xlink" x="0px"
	 y="0px" viewBox="0 0 150 60" style="enable-background:new 0 0 150 60;" xml:space="preserve">
<style type="text/css">
	.st0{fill:#727171;}
	.st1{fill:url(#SVGID_1_);}
	.st2{fill:url(#SVGID_2_);}
</style>
<path class="st0" d="M149.8,45.8c0,0.2-0.1,0.3-0.2,0.4c-0.1,0.1-0.2,0.1-0.4,0.1h-5.9v-5.9h5.6c0.2,0,0.3,0.1,0.4,0.1
	c0.1,0.1,0.2,0.2,0.2,0.4h0.2v-2.7h-0.2c0,0.2-0.2,0.3-0.2,0.4c-0.1,0.1-0.2,0.1-0.4,0.1h-8.4v0.2c0.2,0.1,0.4,0.1,0.4,0.2
	c0.1,0.1,0.1,0.2,0.1,0.4v7.6c0,0.2,0,0.3-0.1,0.4c-0.1,0.1-0.2,0.2-0.4,0.2v0.2h8.6c0.2,0,0.3,0,0.4,0.1c0.1,0.1,0.2,0.2,0.2,0.4
	h0.2v-2.7L149.8,45.8L149.8,45.8z"/>
<path class="st0" d="M146.7,42.5h-2.9v1.6h2.9c0.2,0,0.3,0,0.4,0.1c0.1,0.1,0.2,0.2,0.2,0.4h0.2V42h-0.2c0,0.2-0.2,0.3-0.2,0.4
	C147.1,42.4,146.9,42.5,146.7,42.5z"/>
<path class="st0" d="M132.9,39c0.4,0.1,0.6,0.3,0.6,0.6c0,0.2,0,0.4-0.2,0.6l-2.2,4.9l-2.2-4.9c-0.2-0.3-0.2-0.5-0.2-0.6
	c0-0.3,0.2-0.5,0.5-0.6v-0.2h-3.7V39c0.2,0.1,0.4,0.2,0.4,0.3c0.1,0.1,0.2,0.3,0.4,0.7l3.3,6.8c0.1,0.3,0.2,0.4,0.2,0.6
	c0,0.3-0.2,0.5-0.6,0.5v0.2h3.6v-0.2c-0.4-0.1-0.6-0.3-0.6-0.5c0-0.1,0-0.3,0.2-0.6l3.2-6.8c0.2-0.3,0.3-0.5,0.4-0.7
	c0.1-0.1,0.2-0.2,0.5-0.3v-0.2h-3.6V39L132.9,39z"/>
<path class="st0" d="M120.6,46.6l-1.8-2.5c0.9-0.2,1.6-0.5,2-0.9c0.4-0.4,0.6-1,0.6-1.7c0-1-0.3-1.7-1-2.1c-0.3-0.2-0.7-0.4-1.1-0.4
	c-0.4-0.1-1-0.1-1.8-0.1h-6v0.2c0.2,0.1,0.4,0.1,0.4,0.2c0.1,0.1,0.1,0.2,0.1,0.4v7.6c0,0.2,0,0.3-0.1,0.4c-0.1,0.1-0.2,0.2-0.4,0.2
	v0.2h3.3v-0.2c-0.2-0.1-0.4-0.1-0.4-0.2c-0.1-0.1-0.1-0.2-0.1-0.4v-2.9l0,0v-1.7l0,0v-2.1h3.3c0.6,0,1,0.1,1.3,0.2
	c0.2,0.2,0.4,0.4,0.4,0.8c0,0.4-0.2,0.7-0.5,0.9c-0.2,0.1-0.6,0.2-1.1,0.2h-2.7v1.7h1.6l1.8,2.7c0.2,0.3,0.2,0.4,0.2,0.6
	c0,0.2-0.2,0.3-0.4,0.4v0.2h3.9v-0.2c-0.2,0-0.4-0.2-0.6-0.3C121.1,47.3,120.8,47,120.6,46.6z"/>
<path class="st0" d="M106.2,46.3c-0.1,0.1-0.2,0.1-0.4,0.1h-5.9v-5.9h5.6c0.2,0,0.3,0.1,0.4,0.1c0.1,0.1,0.2,0.2,0.2,0.4h0.2v-2.7
	h-0.2c0,0.2-0.2,0.3-0.2,0.4c-0.1,0.1-0.2,0.1-0.4,0.1h-8.4v0.2c0.2,0.1,0.4,0.1,0.4,0.2c0.1,0.1,0.1,0.2,0.1,0.4v7.6
	c0,0.2,0,0.3-0.1,0.4c-0.1,0.1-0.2,0.2-0.4,0.2v0.2h8.6c0.2,0,0.3,0,0.4,0.1c0.1,0.1,0.2,0.2,0.2,0.4h0.2v-2.7h-0.2
	C106.4,46,106.3,46.2,106.2,46.3z"/>
<path class="st0" d="M103.4,42.5h-2.9v1.6h2.9c0.2,0,0.3,0,0.4,0.1c0.1,0.1,0.2,0.2,0.2,0.4h0.2V42H104c0,0.2-0.2,0.3-0.2,0.4
	C103.7,42.4,103.6,42.5,103.4,42.5z"/>
<path class="st0" d="M91,41.8l-0.2-0.1c0-0.2,0-0.3-0.2-0.4c-0.3-0.3-0.8-0.5-1.4-0.7c-0.6-0.2-1.2-0.3-1.8-0.3
	c-0.6,0-1,0.1-1.4,0.2c-0.6,0.2-0.9,0.5-0.9,0.9c0,0.3,0.2,0.5,0.4,0.6c0.3,0.1,0.8,0.2,1.6,0.3l1.3,0.1c1.2,0.1,2,0.3,2.6,0.7
	c0.3,0.2,0.6,0.5,0.8,0.8c0.3,0.4,0.4,0.9,0.4,1.4c0,1-0.4,1.7-1.2,2.2c-0.8,0.5-1.9,0.8-3.3,0.8c-1.4,0-2.7-0.3-4.1-0.9
	c-0.1,0-0.2-0.1-0.2-0.1c-0.1,0-0.2,0.1-0.3,0.2L83,47.5l1-2.3l0.2,0.1c0,0,0,0.1,0,0.1c0,0.1,0,0.3,0.2,0.4
	c0.3,0.3,0.8,0.5,1.4,0.6s1.4,0.3,2,0.3c0.6,0,1.1-0.1,1.6-0.2c0.6-0.2,0.8-0.5,0.8-0.9c0-0.3-0.2-0.6-0.6-0.7
	c-0.3-0.1-0.8-0.2-1.4-0.2l-1.3-0.1c-0.7-0.1-1.2-0.1-1.6-0.2c-0.4-0.1-0.7-0.2-1-0.4c-0.4-0.2-0.6-0.5-0.8-0.9
	c-0.2-0.4-0.3-0.8-0.3-1.2c0-1,0.4-1.8,1.3-2.3c0.8-0.5,1.8-0.7,2.9-0.7c0.6,0,1.2,0.1,1.8,0.2c0.6,0.1,1.2,0.4,2,0.7
	c0.2,0.1,0.4,0.2,0.5,0.2c0.1,0,0.2-0.1,0.4-0.2l0.2,0.1L91,41.8z"/>
<path class="st0" d="M74.5,39c0.2,0.1,0.4,0.1,0.4,0.2c0.1,0.1,0.1,0.2,0.1,0.4v7.6c0,0.2,0,0.3-0.1,0.4c-0.1,0.1-0.2,0.2-0.4,0.2
	V48h3.3v-0.2c-0.2-0.1-0.4-0.1-0.4-0.2c-0.1-0.1-0.1-0.2-0.1-0.4v-7.6c0-0.2,0-0.3,0.1-0.4c0-0.1,0.2-0.2,0.4-0.2v-0.2h-3.3V39z"/>
<path class="st0" d="M68.5,46.6l-1.8-2.5c0.9-0.2,1.6-0.5,2-0.9c0.4-0.4,0.6-1,0.6-1.7c0-1-0.3-1.7-1-2.1C68,39.2,67.6,39,67.2,39
	c-0.4-0.1-1-0.1-1.8-0.1h-6.1v0.2c0.2,0.1,0.4,0.1,0.4,0.2c0.1,0.1,0.1,0.2,0.1,0.4v7.6c0,0.2,0,0.3-0.1,0.4s-0.2,0.2-0.4,0.2v0.2
	h3.3v-0.2c-0.2-0.1-0.4-0.1-0.4-0.2c-0.1-0.1-0.1-0.2-0.1-0.4v-2.9l0,0v-1.7l0,0v-2.1h3.3c0.6,0,1,0.1,1.3,0.2
	c0.2,0.2,0.4,0.4,0.4,0.8c0,0.4-0.2,0.7-0.5,0.9c-0.2,0.1-0.6,0.2-1.1,0.2h-2.7v1.7h1.6l1.8,2.7c0.2,0.3,0.2,0.4,0.2,0.6
	c0,0.2-0.2,0.3-0.4,0.4v0.2h3.9v-0.2c-0.2,0-0.4-0.2-0.6-0.3C69.1,47.3,68.8,47,68.5,46.6z"/>
<path class="st0" d="M54.2,46.3c-0.1,0.1-0.2,0.1-0.4,0.1h-5.9v-5.9h5.6c0.2,0,0.3,0.1,0.4,0.1c0.1,0.1,0.2,0.2,0.2,0.4h0.2v-2.7
	h-0.2c0,0.2-0.2,0.3-0.2,0.4c-0.1,0.1-0.2,0.1-0.4,0.1h-8.4v0.2c0.2,0.1,0.3,0.1,0.4,0.2c0.1,0.1,0.1,0.2,0.1,0.4v7.6
	c0,0.2,0,0.3-0.1,0.4c-0.1,0.1-0.2,0.2-0.4,0.2v0.2h8.6c0.2,0,0.3,0,0.4,0.1c0.1,0.1,0.2,0.2,0.2,0.4h0.2v-2.7h-0.2
	C54.3,46,54.3,46.2,54.2,46.3z"/>
<path class="st0" d="M51.4,42.5h-2.9v1.6h2.9c0.2,0,0.3,0,0.4,0.1c0.1,0.1,0.2,0.2,0.2,0.4h0.2V42H52c0,0.2-0.2,0.3-0.2,0.4
	C51.7,42.4,51.5,42.5,51.4,42.5z"/>
<path class="st0" d="M37.2,39c0.4,0.1,0.5,0.3,0.5,0.6c0,0.2-0.1,0.4-0.2,0.6l-2.2,4.9l-2.2-4.9c-0.1-0.3-0.2-0.5-0.2-0.6
	c0-0.3,0.2-0.5,0.5-0.6v-0.2h-3.7V39c0.2,0.1,0.4,0.2,0.5,0.3c0.1,0.1,0.2,0.3,0.4,0.7l3.3,6.8c0.1,0.3,0.2,0.4,0.2,0.6
	c0,0.3-0.2,0.5-0.5,0.5v0.2H37v-0.2c-0.4-0.1-0.6-0.3-0.6-0.5c0-0.1,0.1-0.3,0.2-0.6l3.2-6.8c0.2-0.3,0.3-0.5,0.4-0.7
	c0.1-0.1,0.3-0.2,0.5-0.3v-0.2h-3.6L37.2,39L37.2,39z"/>
<g>
	
		<linearGradient id="SVGID_1_" gradientUnits="userSpaceOnUse" x1="1680.6024" y1="163.1587" x2="1709.323" y2="225.1358" gradientTransform="matrix(0.2619 -2.610000e-02 2.610000e-02 0.2619 -442.2737 28.2516)">
		<stop  offset="0" style="stop-color:#FFFFFF"/>
		<stop  offset="1" style="stop-color:#00428B"/>
	</linearGradient>
	<path class="st1" d="M19,48.3c0.3-8.8-1.7-19.2-9-24.7L0,34.7c7.3,5.5,9.8,15.8,9.6,24.7L19,48.3z"/>
	
		<linearGradient id="SVGID_2_" gradientUnits="userSpaceOnUse" x1="1670.1156" y1="260.9995" x2="1955.8026" y2="89.4364" gradientTransform="matrix(0.2619 -2.610000e-02 2.610000e-02 0.2619 -442.2737 28.2516)">
		<stop  offset="0" style="stop-color:#FFFFFF"/>
		<stop  offset="1" style="stop-color:#00428B"/>
	</linearGradient>
	<path class="st2" d="M19.6,47.7c0,0,11.5-23.6,15.7-28.9C46.4,5,58.4-1.3,77.7,1.1l-9.6,11.5c-5.5-2.2-23.8,0-33.3,8
		C25.1,28.7,9.6,59.3,9.6,59.3L19.6,47.7z"/>
</g>
</svg>
